<svg width="551" height="767" viewBox="0 0 551 767" fill="none" xmlns="http://www.w3.org/2000/svg">
<path d="M244.038 112.803L-6.92374 105.306" stroke="#C7F043" stroke-opacity="0.43"/>
<line y1="-0.5" x2="323.536" y2="-0.5" transform="matrix(0.129486 0.991581 0.991581 -0.129486 247.331 300.675)" stroke="#C7F043" stroke-opacity="0.43"/>
<line y1="-0.5" x2="143.459" y2="-0.5" transform="matrix(-0.99927 0.0382049 0.038205 0.99927 388.758 296.667)" stroke="#C7F043" stroke-opacity="0.43"/>
<line y1="-0.5" x2="340.572" y2="-0.5" transform="matrix(0.29225 -0.956342 -0.956342 -0.29225 288.541 621.876)" stroke="#C7F043" stroke-opacity="0.43"/>
<path d="M-7.3362 104.217L111.035 325.529" stroke="#C7F043" stroke-opacity="0.43"/>
<path d="M246.979 301.532L-7.51077 104.101" stroke="#C7F043" stroke-opacity="0.43"/>
<path d="M110.539 325.24L247.043 301.492" stroke="#C7F043" stroke-opacity="0.43"/>
<line y1="-0.5" x2="233.175" y2="-0.5" transform="matrix(-0.614208 -0.789144 -0.789144 0.614208 388.309 296.536)" stroke="#C7F043" stroke-opacity="0.43"/>
<line y1="-0.5" x2="189.724" y2="-0.5" transform="matrix(0.019548 0.999809 0.999809 -0.019548 243.756 112.237)" stroke="#C7F043" stroke-opacity="0.43"/>
<line y1="-0.5" x2="346.59" y2="-0.5" transform="matrix(-0.514519 -0.857479 -0.857479 0.514519 288.859 622.434)" stroke="#C7F043" stroke-opacity="0.43"/>
<line y1="-0.5" x2="210.69" y2="-0.5" transform="matrix(-0.966223 -0.257708 -0.257708 0.966223 289.187 622.16)" stroke="#C7F043" stroke-opacity="0.43"/>
<line y1="-0.5" x2="243.916" y2="-0.5" transform="matrix(-0.104513 0.994523 0.994523 0.104513 111.106 325.283)" stroke="#C7F043" stroke-opacity="0.43"/>
<line y1="-0.5" x2="271.891" y2="-0.5" transform="matrix(0.471076 0.882093 0.882093 -0.471076 -42.2529 327.52)" stroke="#C7F043" stroke-opacity="0.43"/>
<line y1="-0.5" x2="153.405" y2="-0.5" transform="matrix(0.999775 -0.0212313 -0.0212313 -0.999775 -42.1741 328.699)" stroke="#C7F043" stroke-opacity="0.43"/>
<line y1="-0.5" x2="161.377" y2="-0.5" transform="matrix(0.919497 0.393098 0.393098 -0.919497 -62.5576 503.916)" stroke="#C7F043" stroke-opacity="0.43"/>
<line y1="-0.5" x2="164.985" y2="-0.5" transform="matrix(0.291034 0.956713 0.956713 -0.291034 84.2085 565.978)" stroke="#C7F043" stroke-opacity="0.43"/>
<line y1="-0.5" x2="185.938" y2="-0.5" transform="matrix(-0.838219 0.545335 0.545335 0.838219 288.081 622.423)" stroke="#C7F043" stroke-opacity="0.43"/>
<line y1="-0.5" x2="293.505" y2="-0.5" transform="matrix(-0.661893 -0.749598 -0.749598 0.661893 131.802 724.086)" stroke="#C7F043" stroke-opacity="0.43"/>
<line y1="-0.5" x2="179.077" y2="-0.5" transform="matrix(-0.992547 -0.121862 -0.121862 0.992547 130.047 723.103)" stroke="#C7F043" stroke-opacity="0.43"/>
<line y1="-0.5" x2="197.178" y2="-0.5" transform="matrix(0.236148 0.971717 0.971717 -0.236148 387.24 297.508)" stroke="#C7F043" stroke-opacity="0.43"/>
<line y1="-0.5" x2="196.189" y2="-0.5" transform="matrix(0.737107 -0.675776 -0.675776 -0.737107 289.209 621.684)" stroke="#C7F043" stroke-opacity="0.43"/>
</svg>
