<svg width="74" height="75" viewBox="0 0 74 75" fill="none" xmlns="http://www.w3.org/2000/svg">
<path d="M73.876 37.2686C73.876 37.4346 73.876 37.5903 73.8657 37.7563C73.619 58.1129 57.1678 74.5476 36.9329 74.5476C16.6979 74.5476 0.267331 58.1233 0 37.7666C0 37.6006 0 37.4346 0 37.2686C0 16.6837 16.5334 0 36.9329 0C57.3323 0 73.876 16.6837 73.876 37.2686Z" fill="#231F20"/>
<path d="M73.8657 37.7563C73.619 58.113 57.1678 74.5477 36.9329 74.5477C16.6979 74.5477 0.267331 58.1233 0 37.7667L0.164512 37.7044L12.5132 33.6788L13.017 33.5231L13.0684 33.5024L15.4949 35.0795L25.9826 30.0059H47.9037L58.3811 35.0795L60.8076 33.5024H60.8385L61.332 33.6788L73.6909 37.7044L73.8554 37.7563H73.8657Z" fill="#EF3F30"/>
<path fill-rule="evenodd" clip-rule="evenodd" d="M11.8141 49.9782L12.8012 51.3997L10.827 52.79L12.3282 54.9481L14.3023 53.5578L15.2894 54.9792L10.097 58.6521L9.10994 57.2307L11.1355 55.7989L9.63432 53.6408L7.60877 55.0726L6.6217 53.6512L11.8141 49.9782ZM17.7674 57.1996L17.9627 57.3759C18.775 58.1126 19.1863 58.8181 19.2171 59.5029C19.248 60.1877 18.8881 60.9451 18.1478 61.7751L17.973 61.9723C17.2327 62.8023 16.5232 63.2381 15.8446 63.2796C15.166 63.3211 14.4257 62.9787 13.6134 62.242L13.4181 62.0656C12.6058 61.329 12.1945 60.6235 12.1637 59.9387C12.1328 59.2539 12.4927 58.4965 13.233 57.6665L13.4078 57.4693C14.1481 56.6393 14.8576 56.2035 15.5362 56.162C16.2148 56.1205 16.9551 56.4629 17.7674 57.1996ZM17.4795 59.4199C17.5 59.0983 17.3047 58.7455 16.8831 58.372C16.4718 57.9985 16.1017 57.8325 15.7932 57.8843C15.4745 57.9362 15.0941 58.2267 14.6211 58.7455C14.1584 59.2643 13.9116 59.6897 13.8911 60.0113C13.8705 60.3329 14.0659 60.6857 14.4874 61.0592C14.8987 61.4327 15.2688 61.5987 15.5773 61.5469C15.896 61.495 16.2765 61.2045 16.7495 60.6857C17.2121 60.1669 17.4589 59.7415 17.4795 59.4199ZM22.8672 60.9243L23.0934 61.0592C23.9777 61.5676 24.5123 62.0864 24.7077 62.6467C24.9031 63.1966 24.79 63.8606 24.3581 64.618L22.8672 63.7672C23.042 63.456 23.0832 63.1862 22.9803 62.9683C22.8775 62.7504 22.6307 62.5222 22.24 62.3043C21.7671 62.0345 21.3763 61.9515 21.0884 62.0656C20.8006 62.1798 20.4818 62.5429 20.1528 63.1343C19.8135 63.7361 19.6695 64.1926 19.7209 64.5039C19.7724 64.8151 20.0397 65.1056 20.5127 65.3754C20.9034 65.5933 21.2221 65.6971 21.4586 65.6659C21.6951 65.6348 21.911 65.4688 22.0858 65.1472L23.5767 65.9979C23.1448 66.7761 22.641 67.2119 22.0652 67.326C21.4894 67.4401 20.7697 67.243 19.8855 66.745L19.6593 66.6205C18.7236 66.0809 18.1684 65.4895 17.9936 64.8255C17.8188 64.1615 18.0039 63.3522 18.5488 62.3769L18.6825 62.1486C19.2274 61.1734 19.8238 60.5923 20.4715 60.4056C21.1193 60.2188 21.911 60.3848 22.8467 60.9243H22.8672ZM29.8384 70.5631L27.854 69.951L26.6818 66.994L26.2706 66.8695L25.5508 69.2455L23.9057 68.7371L25.7565 62.6155L27.4016 63.1239L26.7024 65.4273L27.1137 65.5518L29.6842 63.8295L31.6686 64.4416L28.255 66.6931L29.8384 70.5631ZM32.0285 64.4105L36.9947 64.8151L36.8816 66.2262L33.653 65.9564L33.5708 67.0147L36.6554 67.2637L36.5423 68.6333L33.4577 68.3843L33.3651 69.5152L36.6348 69.785L36.5217 71.196L31.5247 70.781L32.0388 64.4105H32.0285ZM44.0584 63.9747L42.1768 68.3947L42.4852 70.6461L40.7887 70.8848L40.4803 68.6333L37.4676 64.8981L39.3492 64.6388L41.128 66.9317L42.2179 64.2341L44.0687 63.9747H44.0584ZM47.7907 62.408L48.0272 62.3043C48.9629 61.91 49.7032 61.7959 50.2584 61.9826C50.8137 62.159 51.2558 62.657 51.5951 63.4663L50.0117 64.1407C49.878 63.8087 49.6929 63.622 49.4564 63.5701C49.2199 63.5182 48.9012 63.5701 48.4899 63.7568C47.9861 63.9747 47.6879 64.2341 47.6057 64.535C47.5234 64.8359 47.6057 65.3028 47.873 65.9461C48.1403 66.579 48.4077 66.9732 48.6853 67.1185C48.9629 67.2637 49.3536 67.2326 49.8574 67.0147C50.2687 66.8383 50.536 66.6516 50.6594 66.4337C50.7828 66.2262 50.7725 65.9564 50.6389 65.6141L52.2223 64.9396C52.5616 65.7593 52.6027 66.4337 52.3457 66.9629C52.0886 67.492 51.4923 67.9485 50.5566 68.3428L50.3201 68.4465C49.333 68.8719 48.5208 68.9446 47.9039 68.6852C47.2767 68.4154 46.7523 67.7721 46.3204 66.745L46.2176 66.5063C45.7858 65.4792 45.6932 64.6491 45.94 64.0059C46.1868 63.3729 46.8037 62.8438 47.801 62.4184L47.7907 62.408ZM55.0704 64.1407L57.6923 62.3354L58.5149 63.5493L54.474 66.3196L50.9062 61.0385L52.3251 60.0632L55.0704 64.1407ZM54.7516 58.4861L55.9649 57.2618L58.6382 59.9698C58.9467 60.2811 59.2243 60.4367 59.4608 60.4263C59.6973 60.4159 59.9955 60.2292 60.3553 59.866C60.7152 59.5029 60.9003 59.202 60.9208 58.9634C60.9311 58.7248 60.7872 58.4446 60.4684 58.1333L57.7951 55.4254L59.0084 54.2011L61.8668 57.0958C62.4528 57.6872 62.7099 58.2786 62.6585 58.87C62.5968 59.4614 62.2164 60.1151 61.5069 60.8413L61.3218 61.0281C60.6124 61.744 59.9543 62.1279 59.3683 62.1901C58.7822 62.2524 58.1961 61.9826 57.61 61.3912L54.7516 58.4965V58.4861ZM64.5092 51.3582C64.9411 50.9639 65.4449 50.9432 66.0001 51.3063L66.2058 51.4412C66.761 51.8043 67.0592 52.1986 67.09 52.6344C67.1209 53.0701 66.9049 53.6512 66.4525 54.3671L64.5607 57.3448L59.2243 53.9002L61.0545 51.0054C61.4966 50.3103 61.9079 49.8952 62.2986 49.75C62.6893 49.6151 63.1623 49.7189 63.7175 50.082L63.9232 50.2169C64.3961 50.5178 64.5915 50.9017 64.499 51.3582H64.5092ZM65.1776 53.7549C65.3421 53.5059 65.4141 53.3088 65.4038 53.1739C65.4038 53.039 65.301 52.9145 65.1159 52.8004C64.9205 52.6759 64.756 52.6344 64.6326 52.6862C64.499 52.7381 64.355 52.8937 64.1802 53.1531L63.3371 54.4812L64.3139 55.1141L65.1776 53.7549ZM61.3321 53.1843L62.2472 53.7757L62.9978 52.5825C63.1623 52.3335 63.2343 52.1363 63.224 52.0015C63.224 51.8666 63.1212 51.7421 62.9361 51.6279C62.7716 51.5242 62.6276 51.4931 62.5145 51.5346C62.4014 51.5761 62.2678 51.7213 62.1135 51.96L61.3424 53.1843H61.3321ZM10.7551 16.1024L10.899 15.926C11.5159 15.1894 12.0506 14.764 12.503 14.6498C12.9657 14.5357 13.4592 14.7017 14.0042 15.1479L12.9862 16.3825C12.8115 16.2373 12.6367 16.1958 12.4824 16.258C12.3179 16.3307 12.102 16.5278 11.8141 16.8702C11.5673 17.1711 11.4234 17.389 11.3925 17.5446C11.3514 17.7002 11.4131 17.8351 11.5571 17.9596C11.7318 18.1049 11.8964 18.1464 12.0506 18.0634C12.2048 17.9804 12.4927 17.7106 12.9143 17.2437C13.1816 16.9532 13.4078 16.7145 13.5929 16.5485C13.778 16.3825 13.9733 16.2373 14.1584 16.1231C14.3435 16.009 14.5285 15.9571 14.6931 15.9675C14.8679 15.9675 15.0426 16.0194 15.2277 16.1024C15.4128 16.1854 15.6184 16.3203 15.8344 16.507L16.0091 16.6523C16.5027 17.0777 16.7289 17.5238 16.6775 17.9907C16.6261 18.468 16.3073 19.0698 15.7007 19.7961L15.5567 19.9724C14.9295 20.7299 14.3846 21.1552 13.9219 21.2694C13.4592 21.3835 12.9451 21.2175 12.3899 20.761L13.4078 19.5263C13.5929 19.6819 13.7677 19.7234 13.9322 19.6612C14.0967 19.5886 14.3332 19.381 14.6314 19.0179C14.8884 18.7066 15.0426 18.468 15.0838 18.302C15.1249 18.1464 15.0735 18.0011 14.9295 17.8766C14.7547 17.7313 14.5902 17.7002 14.4257 17.7832C14.2715 17.8662 13.9836 18.1464 13.562 18.6029C12.9143 19.3188 12.4002 19.7234 12.0095 19.8376C11.6187 19.9517 11.1561 19.7753 10.6317 19.3292L10.4569 19.1839C9.97363 18.7793 9.75771 18.3331 9.79884 17.8558C9.83996 17.3786 10.1587 16.7872 10.7345 16.092L10.7551 16.1024ZM16.4101 10.6242L16.6055 10.4789C17.4281 9.85638 18.1581 9.58662 18.7956 9.67999C19.433 9.77337 20.0705 10.2506 20.6977 11.0911L20.8417 11.2882C21.4689 12.139 21.7465 12.8756 21.6642 13.5189C21.582 14.1622 21.1296 14.7951 20.307 15.428L20.1117 15.5733C19.2891 16.1958 18.5591 16.4655 17.9216 16.3722C17.2841 16.2788 16.6466 15.8015 16.0194 14.9611L15.8652 14.764C15.238 13.9236 14.9604 13.1765 15.0426 12.5332C15.1249 11.89 15.5773 11.2571 16.3999 10.6242H16.4101ZM18.4049 11.2986C18.117 11.2259 17.7571 11.3504 17.3252 11.6721C16.9037 11.9937 16.6878 12.305 16.6775 12.6162C16.6775 12.9171 16.8626 13.3425 17.2636 13.8717C17.6645 14.4008 18.0039 14.7121 18.302 14.7847C18.5899 14.8573 18.9498 14.7328 19.3714 14.4112C19.7929 14.0896 20.0088 13.7783 20.0191 13.467C20.0191 13.1661 19.834 12.7408 19.433 12.2116C19.0321 11.6825 18.6927 11.3712 18.3946 11.2986H18.4049ZM20.8314 7.69828L22.3223 7.04463L23.7515 10.3648C23.916 10.7487 24.1113 10.9769 24.317 11.0496C24.5329 11.1222 24.8619 11.0599 25.3041 10.8628C25.7462 10.6657 26.0135 10.4685 26.1061 10.261C26.1986 10.0535 26.1677 9.75262 25.993 9.36873L24.5638 6.04859L26.0546 5.39493L27.5764 8.94334C27.8848 9.66962 27.9157 10.2818 27.6586 10.7902C27.4016 11.2986 26.8361 11.7343 25.9621 12.1182L25.7359 12.222C24.8619 12.6059 24.1525 12.72 23.6075 12.5644C23.0729 12.4087 22.641 11.9626 22.3326 11.2363L20.8108 7.68791L20.8314 7.69828ZM32.9127 3.88012L33.1801 5.24968L31.4424 5.59207L32.3369 10.178L30.7432 10.4893L29.8487 5.90333L28.111 6.24572L27.8437 4.87616L32.9127 3.88012ZM34.7429 3.69336L36.3675 3.72449L36.3263 6.02784L38.8043 6.07971L38.8454 3.77636L40.47 3.80749L40.3466 9.87713L38.722 9.846L38.7735 7.47002L36.2955 7.41815L36.2441 9.79412L34.6195 9.763L34.7429 3.69336ZM44.8398 7.62566L47.6674 8.37269L47.3589 9.55549C47.1738 10.261 46.8242 10.7072 46.3101 10.9043C45.796 11.1014 45.0763 11.0807 44.1509 10.8317L43.9144 10.7694C42.9068 10.4997 42.2385 10.0846 41.9197 9.52436C41.601 8.96409 41.5702 8.16518 41.8375 7.13801L41.8992 6.89937C42.1665 5.8722 42.5778 5.1978 43.133 4.86579C43.6882 4.53377 44.48 4.50264 45.4979 4.77241L45.7344 4.83466C46.6597 5.08367 47.2869 5.42606 47.6057 5.86183C47.9347 6.2976 48.0067 6.89937 47.8319 7.66716L46.2485 7.25214C46.3204 6.94088 46.2793 6.71262 46.1251 6.53623C45.9708 6.37023 45.6829 6.22497 45.2614 6.12122C44.7267 5.97596 44.336 5.99671 44.0892 6.18347C43.8425 6.35985 43.6368 6.78524 43.462 7.45965C43.2872 8.13405 43.2667 8.61132 43.4106 8.89146C43.5443 9.1716 43.9042 9.38948 44.4902 9.54511C44.9324 9.65924 45.2511 9.69037 45.4465 9.64887C45.6418 9.59699 45.7858 9.44136 45.8783 9.1716L44.5314 8.81883L44.8398 7.64641V7.62566ZM51.3586 13.8302L51.5334 12.8964L49.3639 11.724L48.6853 12.388L47.1533 11.558L51.8007 7.17951L53.8571 8.28968L52.8495 14.6187L51.3586 13.8198V13.8302ZM51.8007 11.4749L52.2531 9.04709L52.1297 8.98484L50.3818 10.7175L51.8007 11.4853V11.4749ZM60.1805 12.9483L59.3168 14.0273L57.9391 12.9068L55.0293 16.5485L53.7646 15.5214L56.6744 11.8796L55.2966 10.759L56.1603 9.67999L60.1805 12.9586V12.9483ZM61.4247 14.2141L64.4476 17.8766L63.4296 18.7378L61.4555 16.3514L60.6844 16.9947L62.566 19.2669L61.5789 20.0969L59.6973 17.8247L58.8747 18.5199L60.8694 20.927L59.8515 21.7881L56.808 18.1049L61.4247 14.2141ZM24.1319 37.9946H26.6921V46.1912H24.4918V40.5158L23.0832 41.8854L21.654 40.4017L24.1422 37.9946H24.1319ZM34.4036 41.9476C35.0617 42.1552 35.3907 42.7154 35.3907 43.6077V43.9501C35.3907 44.7905 35.1336 45.3923 34.6298 45.7554C34.1157 46.1082 33.252 46.295 32.0285 46.295H31.72C30.4965 46.295 29.6225 46.1186 29.1187 45.7554C28.6046 45.4027 28.3578 44.8009 28.3578 43.9501V43.6077C28.3578 42.7051 28.6868 42.1552 29.3449 41.9476C28.7794 41.7505 28.4915 41.2732 28.4915 40.5366V40.1942C28.4915 39.3538 28.7382 38.7624 29.2215 38.42C29.7047 38.0672 30.5376 37.8908 31.72 37.8908H32.0285C33.2109 37.8908 34.0437 38.0672 34.527 38.42C35.0102 38.7728 35.257 39.3642 35.257 40.1942V40.5366C35.257 41.2732 34.9691 41.7505 34.4036 41.9476ZM32.7791 39.8933C32.6145 39.7896 32.3061 39.7377 31.8742 39.7377C31.4424 39.7377 31.1339 39.7896 30.9694 39.8933C30.8049 39.9971 30.7227 40.1838 30.7227 40.464C30.7227 40.7545 30.7946 40.9516 30.9489 41.0554C31.0928 41.1591 31.4116 41.211 31.8845 41.211C32.3575 41.211 32.6762 41.1591 32.8202 41.0554C32.9641 40.9516 33.0464 40.7545 33.0464 40.464C33.0464 40.1942 32.9641 39.9971 32.7996 39.8933H32.7791ZM30.8255 44.2925C31.0208 44.3963 31.3601 44.4585 31.864 44.4585C32.3678 44.4585 32.7174 44.4066 32.9024 44.2925C33.0978 44.1887 33.1903 43.9812 33.1903 43.6907C33.1903 43.3691 33.1081 43.1512 32.9436 43.0474C32.7791 42.9437 32.4192 42.8814 31.864 42.8814C31.3087 42.8814 30.9591 42.9333 30.7844 43.0474C30.6198 43.1512 30.5376 43.3691 30.5376 43.6907C30.5376 43.9812 30.6301 44.1784 30.8255 44.2925ZM42.3619 41.9476C43.0199 42.1552 43.3489 42.7154 43.3489 43.6077V43.9501C43.3489 44.7905 43.0919 45.3923 42.5881 45.7554C42.074 46.1082 41.2103 46.295 39.9867 46.295H39.6783C38.4547 46.295 37.5807 46.1186 37.0769 45.7554C36.5628 45.4027 36.3161 44.8009 36.3161 43.9501V43.6077C36.3161 42.7051 36.6451 42.1552 37.3031 41.9476C36.7376 41.7505 36.4497 41.2732 36.4497 40.5366V40.1942C36.4497 39.3538 36.6965 38.7624 37.1797 38.42C37.663 38.0672 38.4958 37.8908 39.6783 37.8908H39.9867C41.1692 37.8908 42.002 38.0672 42.4852 38.42C42.9685 38.7728 43.2153 39.3642 43.2153 40.1942V40.5366C43.2153 41.2732 42.9274 41.7505 42.3619 41.9476ZM40.7373 39.8933C40.5728 39.7896 40.2643 39.7377 39.8325 39.7377C39.4007 39.7377 39.0922 39.7896 38.9277 39.8933C38.7632 39.9971 38.6809 40.1838 38.6809 40.464C38.6809 40.7545 38.7529 40.9516 38.9071 41.0554C39.0511 41.1591 39.3698 41.211 39.8428 41.211C40.3158 41.211 40.6345 41.1591 40.7784 41.0554C40.9224 40.9516 41.0046 40.7545 41.0046 40.464C41.0046 40.1942 40.9224 39.9971 40.7579 39.8933H40.7373ZM38.7837 44.2925C38.9791 44.3963 39.3184 44.4585 39.8222 44.4585C40.326 44.4585 40.6756 44.4066 40.8607 44.2925C41.0561 44.1887 41.1486 43.9812 41.1486 43.6907C41.1486 43.3691 41.0663 43.1512 40.9018 43.0474C40.7373 42.9437 40.3774 42.8814 39.8222 42.8814C39.267 42.8814 38.9174 42.9333 38.7426 43.0474C38.5678 43.1616 38.4958 43.3691 38.4958 43.6907C38.4958 43.9812 38.5884 44.1784 38.7837 44.2925ZM48.1917 41.0139C49.2302 41.0139 49.9911 41.2006 50.4641 41.5845C50.937 41.9684 51.1735 42.5805 51.1735 43.421V43.7633C51.1735 44.6453 50.9165 45.2885 50.4127 45.6932C49.8986 46.0978 49.0863 46.295 47.9553 46.295H47.616C46.3616 46.295 45.4773 45.9941 44.9735 45.3923C44.4697 44.7905 44.2229 43.753 44.2229 42.2797V41.9165C44.2229 40.4536 44.4697 39.416 44.9735 38.8143C45.4773 38.2021 46.341 37.9012 47.5645 37.9012H47.9039C49.0452 37.9012 49.8574 38.0984 50.3612 38.4822C50.8548 38.8765 51.1118 39.5094 51.1118 40.4017H48.9526C48.9526 40.1527 48.8704 39.9763 48.7161 39.8726C48.5619 39.7688 48.2843 39.7169 47.873 39.7169C47.3075 39.7169 46.9271 39.8207 46.7317 40.0282C46.5363 40.2357 46.4232 40.6818 46.3924 41.3562C46.7625 41.1176 47.2561 40.9931 47.873 40.9931H48.2123L48.1917 41.0139ZM46.7728 44.2717C46.9476 44.3962 47.2869 44.4585 47.7702 44.4585C48.2534 44.4585 48.5927 44.3962 48.7675 44.2717C48.9423 44.1472 49.0349 43.919 49.0349 43.587C49.0349 43.255 48.9423 43.0267 48.7675 42.9022C48.5927 42.7777 48.2534 42.7154 47.7702 42.7154C47.2869 42.7154 46.9476 42.7777 46.7728 42.9022C46.598 43.0267 46.5055 43.255 46.5055 43.587C46.5055 43.919 46.598 44.1472 46.7728 44.2717Z" fill="white"/>
<path fill-rule="evenodd" clip-rule="evenodd" d="M28.7587 21.2903L29.3961 23.2721H31.4628L29.7869 24.4964L30.4243 26.4781L28.7484 25.2538L27.0724 26.4781L27.7099 24.4964L26.0339 23.2721H28.1006L28.7381 21.2903H28.7587ZM36.3982 20.0142L37.0357 21.9959H39.1023L37.4264 23.2202L38.0639 25.2019L36.3879 23.9776L34.7119 25.2019L35.3494 23.2202L33.6734 21.9959H35.7401L36.3776 20.0142H36.3982ZM44.0377 21.2903L44.6752 23.2721H46.7418L45.0659 24.4964L45.7034 26.4781L44.0274 25.2538L42.3514 26.4781L42.9889 24.4964L41.313 23.2721H43.3796L44.0171 21.2903H44.0377Z" fill="#FFC838"/>
<path d="M36.974 62.8237C23.4532 62.8237 12.4618 51.7323 12.4618 38.0886C12.4618 24.4449 23.4532 13.3535 36.974 13.3535C50.4948 13.3535 61.4863 24.4449 61.4863 38.0886C61.4863 51.7323 50.4948 62.8237 36.974 62.8237ZM36.974 13.7789C23.6897 13.7789 12.8731 24.6835 12.8731 38.099C12.8731 51.5144 23.6794 62.419 36.974 62.419C50.2686 62.419 61.075 51.5144 61.075 38.099C61.075 24.6835 50.2686 13.7789 36.974 13.7789Z" fill="white"/>
</svg>
